<svg xmlns="http://www.w3.org/2000/svg" width="25" height="25" fill="none">
    <path fill="#0079FF"
        d="M12.5 0C5.598 0 0 5.738 0 12.816c0 5.662 3.581 10.466 8.549 12.161.624.119.826-.278.826-.616v-2.386c-3.477.775-4.201-1.512-4.201-1.512-.569-1.481-1.389-1.876-1.389-1.876-1.134-.795.087-.778.087-.778 1.255.09 1.915 1.321 1.915 1.321 1.115 1.959 2.924 1.393 3.638 1.065.111-.828.435-1.394.794-1.713-2.776-.326-5.695-1.425-5.695-6.335 0-1.4.489-2.542 1.287-3.44-.129-.323-.557-1.627.122-3.392 0 0 1.05-.343 3.439 1.314a11.711 11.711 0 0 1 3.128-.431c1.063.005 2.132.147 3.131.431 2.387-1.657 3.435-1.314 3.435-1.314.68 1.766.252 3.07.123 3.392.802.898 1.286 2.041 1.286 3.44 0 4.923-2.924 6.007-5.707 6.324.448.397.857 1.177.857 2.373v3.517c0 .34.2.741.834.615C21.423 23.28 25 18.476 25 12.816 25 5.738 19.403 0 12.5 0Z" />
    <path fill="#0079FF" stroke="#0079FF" stroke-width=".5"
        d="M12.412 17.072a4.644 4.644 0 0 0 2.83-.96l1.97 1.966.005.004a.611.611 0 0 0 .863-.868l-.004-.005-1.967-1.961a4.64 4.64 0 0 0 .965-2.837c0-2.57-2.09-4.661-4.662-4.661a4.667 4.667 0 0 0-4.662 4.661c0 2.57 2.091 4.66 4.662 4.66Zm0 0v-.25m0 .25v-.25m0 0a4.394 4.394 0 0 0 2.849-1.045m-2.849 1.045 2.849-1.045m0 0 2.128 2.124a.362.362 0 0 0 .51-.514l-2.126-2.121-.512.511Zm-2.848.07a3.442 3.442 0 0 1-3.44-3.436 3.441 3.441 0 0 1 3.44-3.436 3.441 3.441 0 0 1 3.438 3.436 3.417 3.417 0 0 1-1.015 2.432l-.007.007-.007.007-.009.011a3.428 3.428 0 0 1-2.4.979Z" />
</svg>